<?xml version="1.0" encoding="UTF-8"?>
<svg id="_레이어_2" data-name="레이어 2" xmlns="http://www.w3.org/2000/svg" viewBox="0 0 736.61 131.1">
  <defs>
    <style>
      .cls-1 {
        fill: #fefdfa;
      }

      .cls-1, .cls-2, .cls-3 {
        stroke-width: 0px;
      }

      .cls-2 {
        fill: none;
      }

      .cls-3 {
        fill: #e5bc47;
      }
    </style>
  </defs>
  <g id="_레이어_1-2" data-name="레이어 1">
    <path class="cls-3" d="M27.04,130.72c-.05.12-.09.26-.17.36-.04.05-.18,0-.27,0,.17-.1.34-.19.51-.29,0,0-.07-.07-.07-.07Z"/>
    <path class="cls-3" d="M176.79,130.72c-.05.12-.09.26-.17.36-.04.05-.18,0-.27,0,.17-.1.34-.19.51-.29,0,0-.07-.07-.07-.07Z"/>
    <path class="cls-3" d="M326.55,130.72c-.05.12-.09.26-.17.36-.04.05-.18,0-.27,0,.17-.1.34-.19.51-.29,0,0-.07-.07-.07-.07Z"/>
    <path class="cls-3" d="M476.31,130.72c-.05.12-.09.26-.17.36-.04.05-.18,0-.27,0,.17-.1.34-.19.51-.29,0,0-.07-.07-.07-.07Z"/>
    <path class="cls-3" d="M560.16,130.8c.17.1.34.19.51.29-.09,0-.23.04-.27,0-.08-.1-.12-.24-.17-.36,0,0-.07.07-.07.07Z"/>
    <path class="cls-3" d="M626.07,130.72c-.05.12-.09.26-.17.36-.04.05-.18,0-.27,0,.17-.1.34-.19.51-.29,0,0-.07-.07-.07-.07Z"/>
    <path class="cls-1" d="M45.01,105.77c-.04.13-.05.27-.12.37-.04.05-.19.03-.29.04.15-.12.3-.24.45-.36,0,0-.04-.05-.04-.05Z"/>
    <path class="cls-1" d="M194.77,105.77c-.04.13-.05.27-.12.37-.04.05-.19.03-.29.04.15-.12.3-.24.45-.36,0,0-.04-.05-.04-.05Z"/>
    <path class="cls-1" d="M344.53,105.77c-.04.13-.05.27-.12.37-.04.05-.19.03-.29.04.15-.12.3-.24.45-.36,0,0-.04-.05-.04-.05Z"/>
    <path class="cls-1" d="M644.05,105.77c-.04.13-.05.27-.12.37-.04.05-.19.03-.29.04.15-.12.3-.24.45-.36,0,0-.04-.05-.04-.05Z"/>
    <path class="cls-2" d="M61.82,52.91c-1.38,5.33-3.81,7.54-9.64,7.03-7.33-.63-14.76-.15-23.52-.15,7.55,5.49,13.84,10.3,20.4,14.72,3.39,2.28,4.34,4.4,2.92,8.54-2.56,7.46-5.67,14.8-6.9,22.68,7.21-3.73,13.37-9,19.8-13.83,1.44-1.08,2.68-1.63,3.91-1.69V31.3c-.03-.06-.06-.12-.09-.19-2.54,7.93-5.06,14.77-6.88,21.79Z"/>
    <path class="cls-2" d="M73.11,91.91c6.44,4.83,12.59,10.1,19.81,13.83-.58-5.81-3.23-11.03-4.84-16.55-3.37-11.62-3.42-11.58,6.55-18.71,4.57-3.27,9.07-6.62,14.65-10.69h-18.99c-11.76,0-11.7-.02-15.4-11.17-1.81-5.48-3.03-11.19-6.1-17.31v58.92c1.37-.06,2.72.49,4.32,1.69Z"/>
    <path class="cls-2" d="M93.09,106.14c-.06-.07-.08-.17-.1-.27t0,0c.02.1.04.2.1.27Z"/>
    <path class="cls-2" d="M44.89,106.14c.06-.07.08-.17.1-.27l-.38.31c.1,0,.25.02.29-.04Z"/>
    <path class="cls-3" d="M110.95,130.72s-.03-.02-.05-.03c0,.04,0,.07-.02.1l.07-.07Z"/>
    <path class="cls-3" d="M92.97,105.77s-.04-.02-.06-.03c0,.03,0,.05.01.08,0,0,.04-.05.04-.05Z"/>
    <path class="cls-3" d="M64.87,91.91c-6.44,4.83-12.59,10.1-19.8,13.83,0,.03-.01.05-.01.08-.02.02-.05.04-.07.06-.02.1-.04.2-.1.27-.04.05-.19.03-.29.04l.38-.31s.02-.07.02-.1c.02-.01.04-.02.06-.03,1.24-7.88,4.34-15.22,6.9-22.68,1.42-4.14.47-6.26-2.92-8.54-6.56-4.42-12.85-9.24-20.4-14.72,8.76,0,16.19-.48,23.52.15,5.83.5,8.26-1.71,9.64-7.03,1.82-7.02,4.34-13.86,6.88-21.79.03.06.06.12.09.19V1.49c-1.25,1.4-1.37,2.88-1.8,4.19-4.08,12.48-8.36,24.89-12.03,37.49-1.54,5.26-3.73,7.26-9.55,7.05-15.02-.53-30.07-.18-45.41-.18.99,2.13,2.64,2.7,3.92,3.64,11.68,8.53,23.36,17.06,35.14,25.44,2.4,1.71,3.05,3.25,2.06,6.15-4.36,12.73-8.5,25.53-12.62,38.34-.73,2.29-2.06,4.52-1.42,7.1,10.97-6.54,20.8-14.7,31.19-22.06,5.27-3.73,7.92-5.64,10.51-5.73v-12.69c-1.23.06-2.47.61-3.91,1.69Z"/>
    <path class="cls-3" d="M44.99,105.87s.05-.04.07-.06c0-.03.01-.05.01-.08-.02.01-.04.02-.06.03,0,.03-.02.07-.02.1Z"/>
    <path class="cls-3" d="M137.53,50.03c-15.86,0-31.66-.14-47.45.1-3.74.06-5.21-1.26-6.19-4.63-2.17-7.5-4.68-14.89-7.11-22.32-2.4-7.33-4.85-14.65-7.39-22.29-.23.19-.43.39-.6.59v29.82c3.07,6.12,4.29,11.84,6.1,17.31,3.69,11.15,3.64,11.17,15.4,11.17h18.99c-5.58,4.07-10.08,7.43-14.65,10.69-9.97,7.13-9.92,7.09-6.55,18.71,1.6,5.52,4.25,10.74,4.84,16.55.02,0,.04.02.06.03h0s.02.07.02.1c.13.1.26.2.39.31-.1,0-.25.02-.29-.04-.06-.07-.08-.17-.1-.27-.02-.02-.05-.04-.07-.06,0-.03,0-.05-.01-.08-7.21-3.73-13.37-9.01-19.81-13.83-1.6-1.2-2.96-1.75-4.32-1.69v12.69c2.73-.1,5.37,1.81,10.92,5.73,10.39,7.36,20.22,15.52,31.19,22.06.64-2.58-.69-4.82-1.42-7.1-4.08-12.65-8.17-25.29-12.5-37.85-1.11-3.23-.46-4.99,2.33-6.95,12.09-8.52,24.02-17.28,35.95-26.02.89-.65,2.61-.84,2.27-2.74Z"/>
    <path class="cls-3" d="M27.1,130.8s0-.07-.02-.11c-.02,0-.03.02-.05.03l.07.08Z"/>
    <path class="cls-3" d="M111.38,131.09c-.13-.07-.25-.15-.38-.22.03.08.06.15.11.21.04.05.18,0,.27,0Z"/>
    <path class="cls-3" d="M110.95,130.72s-.07.07-.07.07l.12.07s-.04-.1-.06-.15Z"/>
    <path class="cls-1" d="M93.38,106.18c-.13-.1-.26-.2-.39-.31.02.1.04.2.1.27.04.05.19.03.29.04Z"/>
    <path class="cls-1" d="M93,105.87s-.02-.07-.02-.1h0s-.04.05-.04.05c.02.02.05.04.07.06Z"/>
    <path class="cls-1" d="M93,105.87s0,0,0,0c0-.03-.02-.07-.02-.1h0s0,0,0,0c0,.03.02.07.02.1Z"/>
    <path class="cls-2" d="M211.57,52.91c-1.38,5.33-3.82,7.54-9.64,7.03-7.33-.63-14.76-.15-22.2-.15.08.67.04.89.12.95,6.3,4.62,12.49,9.4,18.96,13.77,3.38,2.29,4.34,4.4,2.92,8.54-2.56,7.46-5.67,14.8-6.9,22.68,7.21-3.73,13.37-9,19.8-13.83,1.44-1.08,2.68-1.63,3.91-1.69V31.3c-.03-.06-.06-.12-.09-.19-2.54,7.93-5.06,14.77-6.88,21.79Z"/>
    <path class="cls-2" d="M242.78,105.97s-.02-.06-.02-.09c0,0,0,0,0,0,0,.03.02.06.02.09Z"/>
    <path class="cls-2" d="M194.65,106.14c.06-.07.08-.17.1-.27-.13.1-.26.2-.39.31.1,0,.25.02.29-.04Z"/>
    <path class="cls-2" d="M222.87,91.91c6.44,4.83,12.59,10.1,19.81,13.83-.58-5.81-3.23-11.03-4.84-16.55-3.37-11.62-3.42-11.58,6.55-18.71,4.57-3.27,9.07-6.62,14.26-10.41-1.49-.19-1.81-.27-2.14-.27-5.49,0-10.97-.01-16.46-.01-11.76,0-11.7-.02-15.4-11.17-1.81-5.48-3.03-11.19-6.1-17.31v58.91c1.37-.06,2.72.49,4.32,1.69Z"/>
    <path class="cls-3" d="M260.7,130.72s-.03-.02-.05-.03c0,.04,0,.07-.02.1l.07-.07Z"/>
    <path class="cls-3" d="M176.86,130.8s0-.07-.02-.11c-.02,0-.03.02-.05.03l.07.08Z"/>
    <path class="cls-3" d="M194.75,105.87s.05-.04.07-.06c0-.03.01-.05.01-.08-.02.01-.04.02-.06.03,0,.03-.02.07-.02.1Z"/>
    <path class="cls-3" d="M287.29,50.03c-15.86,0-31.66-.14-47.45.1-3.74.06-5.21-1.26-6.19-4.63-2.17-7.5-4.68-14.89-7.11-22.32-2.4-7.33-4.85-14.65-7.69-23.18-.11.29-.21.55-.31.81v30.49c3.07,6.12,4.29,11.84,6.1,17.31,3.69,11.15,3.64,11.17,15.4,11.17,5.49,0,10.97,0,16.46.01.33,0,.66.08,2.14.27-5.19,3.79-9.7,7.14-14.26,10.41-9.97,7.13-9.92,7.09-6.55,18.71,1.6,5.52,4.25,10.74,4.84,16.55.02,0,.04.02.06.03h0s.02.07.02.1c.13.1.26.2.39.31-.1,0-.25.02-.29-.04-.04-.05-.06-.11-.08-.18,0-.03-.02-.06-.02-.09-.02-.02-.05-.04-.07-.06,0-.03,0-.05-.01-.08-7.21-3.73-13.37-9.01-19.81-13.83-1.6-1.2-2.96-1.75-4.32-1.69v12.69c2.73-.1,5.37,1.81,10.92,5.73,10.39,7.36,20.22,15.52,31.19,22.06.64-2.58-.69-4.82-1.42-7.1-4.08-12.65-8.17-25.29-12.5-37.85-1.11-3.23-.46-4.99,2.33-6.95,12.09-8.52,24.02-17.28,35.95-26.02.89-.65,2.61-.84,2.27-2.74Z"/>
    <path class="cls-3" d="M214.63,91.91c-6.44,4.83-12.59,10.1-19.8,13.83,0,.03-.01.05-.01.08-.02.02-.05.04-.07.06-.02.1-.04.2-.1.27-.04.05-.19.03-.29.04.13-.1.26-.2.39-.31,0-.03.02-.07.02-.1.02-.01.04-.02.06-.03,1.24-7.88,4.34-15.22,6.9-22.68,1.42-4.14.46-6.26-2.92-8.54-6.46-4.38-12.66-9.15-18.96-13.77-.08-.06-.04-.28-.12-.95,7.44,0,14.87-.48,22.2.15,5.83.5,8.26-1.71,9.64-7.03,1.82-7.02,4.34-13.87,6.88-21.79.03.06.06.12.09.19V.81c-.83,2.2-1.37,3.52-1.81,4.86-4.06,12.48-8.35,24.9-12.02,37.49-1.54,5.26-3.73,7.26-9.55,7.05-15.02-.53-30.07-.18-45.41-.18.99,2.13,2.64,2.7,3.92,3.64,11.68,8.53,23.36,17.06,35.14,25.44,2.4,1.71,3.05,3.25,2.06,6.15-4.36,12.73-8.5,25.53-12.62,38.34-.73,2.29-2.06,4.52-1.42,7.1,10.97-6.54,20.8-14.7,31.19-22.06,5.27-3.73,7.92-5.64,10.51-5.73v-12.69c-1.23.06-2.47.61-3.91,1.69Z"/>
    <path class="cls-3" d="M242.73,105.77h0s-.04-.02-.06-.03c0,.03,0,.05.01.08,0,0,.04-.05.04-.05Z"/>
    <path class="cls-3" d="M260.7,130.72s-.07.07-.07.07l.12.07s-.04-.1-.06-.15Z"/>
    <path class="cls-3" d="M261.14,131.09c-.13-.07-.25-.15-.38-.22.03.08.06.15.11.21.04.05.18,0,.27,0Z"/>
    <path class="cls-1" d="M242.85,106.14c.04.05.19.03.29.04-.13-.1-.26-.2-.39-.31,0,.03.01.06.02.09.02.06.04.13.08.18Z"/>
    <path class="cls-1" d="M242.75,105.87s-.02-.07-.02-.1h0s.02.07.02.1c0,0,0,0,0,0Z"/>
    <path class="cls-1" d="M242.75,105.87s-.02-.07-.02-.1c0,0-.04.05-.04.05.02.02.05.04.07.06Z"/>
    <path class="cls-2" d="M344.41,106.14c.06-.07.08-.17.1-.27-.13.1-.26.2-.38.31.1,0,.25.02.29-.04Z"/>
    <path class="cls-2" d="M372.63,91.91c6.44,4.83,12.59,10.1,19.81,13.83-.59-5.81-3.23-11.03-4.84-16.55-3.37-11.62-3.42-11.58,6.55-18.71,4.57-3.27,9.07-6.62,14.65-10.69h-18.99c-11.76,0-11.7-.02-15.4-11.17-1.83-5.53-3.05-11.31-6.19-17.5-.11.34-.22.67-.33,1v58.14c1.51-.21,2.98.32,4.74,1.64Z"/>
    <path class="cls-2" d="M392.54,105.97s-.02-.06-.02-.09c0,0,0,0,0,0,0,.03.02.06.02.09Z"/>
    <path class="cls-2" d="M351.69,59.94c-7.33-.63-14.76-.15-23.52-.15,7.55,5.49,13.84,10.3,20.4,14.72,3.39,2.28,4.34,4.4,2.92,8.54-2.56,7.46-5.67,14.8-6.9,22.68,7.21-3.73,13.37-9,19.8-13.83,1.28-.96,2.4-1.49,3.5-1.64v-58.14c-2.43,7.5-4.81,14.07-6.56,20.79-1.38,5.33-3.82,7.54-9.64,7.03Z"/>
    <path class="cls-3" d="M344.5,105.87s.05-.04.07-.06c0-.03.01-.05.01-.08-.02.01-.04.02-.06.03,0,.03-.02.07-.02.1Z"/>
    <path class="cls-3" d="M410.46,130.72s-.03-.02-.05-.03c0,.04,0,.07-.02.1l.07-.07Z"/>
    <path class="cls-3" d="M392.49,105.77h0s-.04-.02-.06-.03c0,.03,0,.05.01.08,0,0,.04-.05.04-.05Z"/>
    <path class="cls-3" d="M364.39,91.91c-6.44,4.83-12.59,10.1-19.8,13.83,0,.03-.01.05-.01.08-.02.02-.05.04-.07.06-.02.1-.04.2-.1.27-.04.05-.19.03-.29.04.13-.1.26-.2.38-.31,0-.03.02-.07.02-.1.02-.01.04-.02.06-.03,1.24-7.88,4.34-15.22,6.9-22.68,1.42-4.14.47-6.26-2.92-8.54-6.56-4.42-12.85-9.24-20.4-14.72,8.76,0,16.19-.48,23.52.15,5.83.5,8.26-1.71,9.64-7.03,1.74-6.72,4.13-13.29,6.56-20.79V1.9c-.6,1.58-1.03,2.66-1.39,3.77-4.06,12.48-8.35,24.9-12.02,37.49-1.54,5.26-3.73,7.26-9.55,7.05-15.02-.53-30.07-.18-46.23-.18,2.19,1.7,3.44,2.72,4.74,3.66,11.7,8.5,23.37,17.04,35.16,25.42,2.4,1.71,3.05,3.25,2.06,6.15-4.36,12.73-8.5,25.53-12.62,38.34-.73,2.29-2.06,4.52-1.42,7.1,10.97-6.54,20.8-14.7,31.19-22.06,4.99-3.53,7.63-5.43,10.1-5.7v-12.67c-1.1.15-2.22.68-3.5,1.64Z"/>
    <path class="cls-3" d="M437.05,50.03c-15.86,0-31.66-.14-47.45.1-3.74.06-5.21-1.26-6.19-4.63-2.17-7.5-4.68-14.89-7.11-22.31-2.4-7.33-4.85-14.65-7.69-23.18-.27.71-.5,1.34-.72,1.9v30.22c.11-.34.22-.66.33-1,3.14,6.19,4.36,11.97,6.19,17.5,3.69,11.15,3.64,11.17,15.4,11.17h18.99c-5.58,4.07-10.08,7.43-14.65,10.69-9.97,7.13-9.92,7.09-6.55,18.71,1.6,5.52,4.25,10.74,4.84,16.55.02,0,.04.02.06.03h0s0,0,0,0c0,.03.02.07.02.1.13.1.26.2.38.31-.1,0-.25.02-.29-.04-.04-.05-.06-.11-.08-.18,0-.03-.02-.06-.02-.09-.02-.02-.05-.04-.07-.06,0-.03,0-.05-.01-.08-7.21-3.73-13.37-9.01-19.81-13.83-1.76-1.32-3.23-1.85-4.74-1.64v12.67c2.88-.32,5.51,1.58,11.34,5.7,10.39,7.36,20.22,15.52,31.19,22.06.64-2.58-.69-4.82-1.42-7.1-4.08-12.65-8.17-25.29-12.5-37.85-1.11-3.23-.45-4.99,2.33-6.95,12.09-8.52,24.02-17.28,35.95-26.02.89-.65,2.61-.84,2.27-2.74Z"/>
    <path class="cls-3" d="M326.62,130.8s0-.07-.02-.11c-.02,0-.03.02-.05.03l.07.08Z"/>
    <path class="cls-3" d="M410.46,130.72s-.07.07-.07.07c.04.02.08.05.12.07-.02-.05-.04-.1-.06-.15Z"/>
    <path class="cls-3" d="M410.9,131.09c-.13-.07-.25-.15-.38-.22.03.08.06.15.11.21.04.05.18,0,.27,0Z"/>
    <path class="cls-1" d="M392.61,106.14c.04.05.19.03.29.04-.13-.1-.26-.2-.38-.31,0,.03.01.06.02.09.02.06.04.13.08.18Z"/>
    <path class="cls-1" d="M392.51,105.87s-.02-.07-.02-.1c0,0-.04.05-.04.05.02.02.05.04.07.06Z"/>
    <path class="cls-1" d="M392.51,105.87s-.02-.07-.02-.1h0s.02.07.02.1c0,0,0,0,0,0Z"/>
    <path class="cls-2" d="M493.92,106.15c.11-.09.23-.18.34-.27,0,0,0,0,0,0-.11.09-.23.18-.34.27Z"/>
    <path class="cls-2" d="M522.39,91.91c6.44,4.83,12.59,10.1,19.81,13.83-.59-5.81-3.23-11.03-4.84-16.55-3.37-11.62-3.42-11.58,6.55-18.71,4.57-3.27,9.07-6.62,14.26-10.41-1.49-.19-1.81-.27-2.14-.27-5.49,0-10.97-.01-16.46-.01-11.76,0-11.7-.02-15.4-11.17-1.77-5.35-2.99-10.92-5.9-16.88v58.46c1.3,0,2.6.57,4.12,1.71Z"/>
    <path class="cls-2" d="M493.88,106.18s.11,0,.17,0c-.05,0-.12,0-.17,0h0Z"/>
    <path class="cls-2" d="M542.37,106.14c-.05-.07-.08-.17-.1-.27,0,0,0,0,0,0,.02.1.04.2.1.27Z"/>
    <path class="cls-2" d="M511.09,52.91c-1.38,5.33-3.82,7.54-9.64,7.03-7.33-.63-14.76-.15-23.52-.15,7.55,5.49,13.84,10.3,20.4,14.72,3.39,2.28,4.34,4.4,2.92,8.54-2.56,7.46-5.67,14.8-6.9,22.68,7.21-3.73,13.37-9,19.8-13.83,1.52-1.14,2.82-1.71,4.12-1.71V31.74c-.1-.21-.19-.41-.29-.62-2.54,7.93-5.06,14.77-6.88,21.79Z"/>
    <path class="cls-3" d="M560.22,130.72s-.03-.02-.05-.03c0,.04,0,.07-.02.1l.07-.07Z"/>
    <path class="cls-3" d="M542.25,105.77s-.04-.02-.06-.03c0,.03,0,.05.01.08,0,0,.04-.05.04-.05Z"/>
    <path class="cls-3" d="M476.38,130.8s0-.07-.02-.11c-.02,0-.03.02-.05.03l.07.08Z"/>
    <path class="cls-3" d="M586.8,50.03c-15.86,0-31.66-.14-47.45.1-3.74.06-5.21-1.26-6.19-4.63-2.17-7.5-4.68-14.89-7.11-22.31-2.4-7.33-4.85-14.65-7.69-23.18-.04.09-.07.18-.1.27v31.47c2.91,5.96,4.13,11.53,5.9,16.88,3.69,11.15,3.64,11.17,15.4,11.17,5.49,0,10.97,0,16.46.01.33,0,.66.08,2.14.27-5.19,3.79-9.7,7.14-14.26,10.41-9.97,7.13-9.92,7.09-6.55,18.71,1.6,5.52,4.25,10.74,4.84,16.55.02,0,.04.02.06.03h0s.02.07.02.1c.13.1.26.2.39.31-.1,0-.25.02-.29-.04-.06-.07-.08-.17-.1-.27-.02-.02-.05-.04-.07-.06,0-.03,0-.05-.01-.08-7.21-3.73-13.37-9.01-19.81-13.83-1.52-1.14-2.82-1.71-4.12-1.71v12.7c2.66,0,5.31,1.91,10.72,5.74,10.39,7.36,20.22,15.52,31.19,22.06.64-2.58-.69-4.82-1.42-7.1-4.08-12.65-8.17-25.29-12.5-37.85-1.11-3.23-.45-4.99,2.33-6.95,12.09-8.52,24.02-17.28,35.95-26.02.89-.65,2.61-.84,2.27-2.74Z"/>
    <path class="cls-3" d="M494.33,105.82s.01-.05.01-.08c-.02.01-.04.02-.06.03,0,0,.04.05.04.05Z"/>
    <path class="cls-3" d="M514.15,91.91c-6.44,4.83-12.59,10.1-19.8,13.83,0,.03-.01.05-.01.08h0s-.05.04-.07.06c-.02.1-.04.2-.1.27-.02.03-.07.03-.12.04-.05,0-.12,0-.17,0h0s.03-.02.04-.03c.11-.09.23-.18.34-.27,0-.03.02-.07.02-.1.02-.01.04-.02.06-.03,1.24-7.88,4.34-15.22,6.9-22.68,1.42-4.14.47-6.26-2.92-8.54-6.56-4.42-12.85-9.24-20.4-14.72,8.76,0,16.19-.48,23.52.15,5.83.5,8.26-1.71,9.64-7.03,1.82-7.02,4.34-13.86,6.88-21.79.11.21.19.41.29.62V.27c-.95,2.53-1.54,3.96-2.01,5.4-4.06,12.48-8.35,24.9-12.02,37.49-1.54,5.26-3.73,7.26-9.55,7.05-15.02-.53-30.07-.18-46.23-.18,2.19,1.7,3.44,2.72,4.74,3.66,11.7,8.5,23.37,17.04,35.16,25.42,2.4,1.71,3.05,3.25,2.06,6.15-4.36,12.73-8.5,25.53-12.62,38.34-.73,2.29-2.06,4.52-1.42,7.1,10.97-6.54,20.8-14.7,31.19-22.06,5.41-3.83,8.06-5.74,10.72-5.74v-12.7c-1.3,0-2.6.57-4.12,1.71Z"/>
    <path class="cls-1" d="M493.88,106.18s.11,0,.17,0c.05,0,.1,0,.12-.04.05-.07.08-.17.1-.27-.11.09-.23.18-.34.27-.01.01-.03.02-.04.03Z"/>
    <path class="cls-1" d="M494.26,105.87s.05-.04.07-.06h0s-.04-.05-.04-.05c0,.03-.02.07-.02.1Z"/>
    <path class="cls-1" d="M494.26,105.87s0,0,0,0c.02-.02.05-.04.07-.06h0s0,0,0,0c-.02.02-.05.04-.07.06Z"/>
    <path class="cls-1" d="M493.88,106.18h0s.03-.02.04-.03c-.01.01-.03.02-.04.03Z"/>
    <path class="cls-1" d="M542.66,106.18c-.13-.1-.26-.2-.39-.31.02.1.04.2.1.27.04.05.19.03.29.04Z"/>
    <path class="cls-1" d="M542.27,105.87s0,0,0,0c0-.03-.02-.07-.02-.1h0s0,0,0,0c0,.03.02.07.02.1Z"/>
    <path class="cls-1" d="M542.27,105.87s-.02-.07-.02-.1h0s-.04.05-.04.05c.02.02.05.04.07.06Z"/>
    <path class="cls-2" d="M643.92,106.14c.05-.07.08-.17.1-.27-.13.1-.26.2-.38.31.1,0,.25.02.29-.04Z"/>
    <path class="cls-2" d="M660.85,52.91c-1.38,5.33-3.82,7.54-9.64,7.03-7.33-.63-14.76-.15-23.52-.15,7.55,5.49,13.84,10.3,20.4,14.72,3.39,2.28,4.34,4.4,2.92,8.54-2.56,7.46-5.67,14.8-6.9,22.68,7.21-3.73,13.37-9,19.8-13.83,1.52-1.14,2.82-1.71,4.12-1.71V31.74c-.1-.21-.19-.41-.29-.62-2.54,7.93-5.06,14.77-6.88,21.79Z"/>
    <path class="cls-2" d="M672.14,91.91c6.44,4.83,12.59,10.1,19.81,13.83-.59-5.81-3.23-11.03-4.84-16.55-3.37-11.62-3.42-11.58,6.55-18.71,4.57-3.27,9.07-6.62,14.26-10.41-1.49-.19-1.81-.27-2.14-.27-5.49,0-10.97-.01-16.46-.01-11.76,0-11.7-.02-15.4-11.17-1.77-5.35-2.99-10.92-5.9-16.88v58.46c1.3,0,2.6.57,4.12,1.71Z"/>
    <path class="cls-2" d="M692.13,106.14c-.06-.07-.08-.17-.1-.27,0,0,0,0,0,0,.02.1.04.2.1.27Z"/>
    <path class="cls-3" d="M709.95,130.76l.03-.04s-.03-.02-.05-.03c0,.04,0,.07-.02.1,0,0,.02-.02.04-.04Z"/>
    <path class="cls-3" d="M692.01,105.77s-.04-.02-.06-.03c0,.03,0,.05.01.08,0,0,.04-.05.04-.05Z"/>
    <path class="cls-3" d="M626.14,130.8s0-.07-.02-.11c-.02,0-.03.02-.05.03l.07.08Z"/>
    <path class="cls-3" d="M736.56,50.03c-15.86,0-31.66-.14-47.45.1-3.74.06-5.21-1.26-6.19-4.63-2.17-7.5-4.68-14.89-7.11-22.31-2.4-7.33-4.85-14.65-7.39-22.29-.15.13-.27.26-.4.39v30.45c2.91,5.96,4.13,11.53,5.9,16.88,3.69,11.15,3.64,11.17,15.4,11.17,5.49,0,10.97,0,16.46.01.33,0,.66.08,2.14.27-5.19,3.79-9.7,7.14-14.26,10.41-9.97,7.13-9.92,7.09-6.55,18.71,1.6,5.52,4.25,10.74,4.84,16.55.02,0,.04.02.06.03h0s.02.07.02.1l.39.31c-.1,0-.25.02-.29-.04-.06-.07-.08-.17-.1-.27-.02-.02-.05-.04-.07-.06,0-.03,0-.05-.01-.08-7.21-3.73-13.37-9.01-19.81-13.83-1.52-1.14-2.82-1.71-4.12-1.71v12.7c2.66,0,5.31,1.91,10.72,5.74,10.39,7.36,20.22,15.52,31.19,22.06.64-2.58-.69-4.82-1.42-7.1-4.08-12.65-8.17-25.29-12.5-37.85-1.11-3.23-.45-4.99,2.33-6.95,12.09-8.52,24.02-17.28,35.95-26.02.89-.65,2.61-.84,2.27-2.74Z"/>
    <path class="cls-3" d="M663.91,91.91c-6.44,4.83-12.59,10.1-19.8,13.83,0,.03-.01.05-.01.08-.02.02-.05.04-.07.06-.02.1-.04.2-.1.27-.04.05-.19.03-.29.04.13-.1.26-.2.38-.31,0-.03.02-.07.02-.1.02-.01.04-.02.06-.03,1.24-7.88,4.34-15.22,6.9-22.68,1.42-4.14.47-6.26-2.92-8.54-6.56-4.42-12.85-9.24-20.4-14.72,8.76,0,16.19-.48,23.52.15,5.83.5,8.26-1.71,9.64-7.03,1.82-7.02,4.34-13.86,6.88-21.79.11.21.19.41.29.62V1.29c-1.43,1.46-1.55,3.02-2,4.39-4.08,12.48-8.36,24.89-12.03,37.49-1.54,5.26-3.73,7.26-9.55,7.05-15.02-.53-30.07-.18-45.41-.18.99,2.13,2.64,2.7,3.92,3.64,11.68,8.53,23.36,17.06,35.14,25.44,2.4,1.71,3.05,3.25,2.06,6.15-4.36,12.73-8.5,25.53-12.62,38.34-.73,2.29-2.06,4.52-1.42,7.1,10.97-6.54,20.8-14.7,31.19-22.06,5.41-3.83,8.06-5.74,10.72-5.74v-12.7c-1.3,0-2.6.57-4.12,1.71Z"/>
    <path class="cls-3" d="M644.02,105.87s.05-.04.07-.06c0-.03.01-.05.01-.08-.02.01-.04.02-.06.03,0,.03-.02.07-.02.1Z"/>
    <path class="cls-3" d="M710.42,131.09c-.13-.07-.25-.15-.38-.22.03.08.06.15.11.21.04.05.18,0,.27,0Z"/>
    <path class="cls-3" d="M710.04,130.87s-.04-.1-.06-.15c0,0-.02.02-.03.03l-.04.04s.08.05.12.07Z"/>
    <path class="cls-3" d="M709.95,130.76s-.04.04-.04.04l.04-.04Z"/>
    <path class="cls-1" d="M692.42,106.18l-.39-.31c.02.1.04.2.1.27.04.05.19.03.29.04Z"/>
    <path class="cls-1" d="M692.03,105.87s-.02-.07-.02-.1h0s-.04.05-.04.05c.02.02.05.04.07.06Z"/>
    <path class="cls-1" d="M692.03,105.87s0,0,0,0c0-.03-.02-.07-.02-.1h0s0,0,0,0c0,.03.02.07.02.1Z"/>
  </g>
</svg>